# xmcd CD database file
#
# Track frame offsets:
#	150
#	13350
#	31300
#	41429
#	59789
#	77821
#	92045
#	104668
#	126819
#	140342
#	155437
#	169730
#	179873
#	200780
#	214612
#	223601
#
# Disc length: 3170 seconds
#
# Revision: 0
# Processed by: cddbd v1.5PL3 Copyright (c) Steve Scherf et al.
# Submitted via: CDex 1.50
#
DISCID=f40c6010
DTITLE=Patrick Saussois and Alma Sinti - Le Chemain des Forains
DYEAR=2003
DGENRE=Jazz
TTITLE0=La Chanson de Zélie
TTITLE1=All Love
TTITLE2=La Guigne
TTITLE3=Viva Alcazar
TTITLE4=Mélancolie
TTITLE5=It's you or no One
TTITLE6=Papillons Noirs
TTITLE7=The Shadow of your Smile
TTITLE8=Si J'aime Suzy
TTITLE9=Tango Sinto
TTITLE10=Moon River
TTITLE11=Chez Jacquet
TTITLE12=Riva Cantonetto
TTITLE13=Skyliner
TTITLE14=Tour de Piste
TTITLE15=Le Chemin des Forains
EXTD=YEAR: 2003
EXTT0=
EXTT1=
EXTT2=
EXTT3=
EXTT4=
EXTT5=
EXTT6=
EXTT7=
EXTT8=
EXTT9=
EXTT10=
EXTT11=
EXTT12=
EXTT13=
EXTT14=
EXTT15=
PLAYORDER=
